# xmcd CD database file
#
# Track frame offsets:
#	150
#	4136
#	19089
#	38030
#	54770
#	61127
#	78378
#	96163
#	116485
#	129513
#	140024
#	155964
#
# Disc length: 2251 seconds
#
# Revision: 0
# Processed by: cddbd v1.5.2PL0 Copyright (c) Steve Scherf et al.
# Submitted via: CDex 1.51
#
DISCID=9708c90c
DTITLE=Automatic City - Triple Ripple
DYEAR=2019
DGENRE=Blues
TTITLE0=Single Ripple
TTITLE1=Shrinking Up Fast
TTITLE2=King Money King
TTITLE3=See My Jumper Hanging On The Line
TTITLE4=Double Ripple
TTITLE5=Tiger Man
TTITLE6=Gas O Line
TTITLE7=Good Morning Little Schoolgirl
TTITLE8=Animal Instinct
TTITLE9=Tripple Ripple
TTITLE10=Oh How
TTITLE11=Going Down South Reprise
EXTD=YEAR: 2019
EXTT0=
EXTT1=
EXTT2=
EXTT3=
EXTT4=
EXTT5=
EXTT6=
EXTT7=
EXTT8=
EXTT9=
EXTT10=
EXTT11=
PLAYORDER=
